<?xml version="1.0" encoding="UTF-8"?><svg id="Ebene_1" xmlns="http://www.w3.org/2000/svg" viewBox="0 0 380 225.88"><defs><style>.cls-1{font-family:SkynetCollege, 'Skynet College';font-size:100px;}</style></defs><text class="cls-1" transform="translate(175.8 89.19)"><tspan x="0" y="0">Ridge</tspan><tspan x="-120.85" y="90">TRooper</tspan></text><g><path d="M174.36,20.48c-.8,5.72-1.78,10.82-7.03,14.15-2.7-.62-5.83-1.34-9.54-2.19,.02,7.54,3.56,10.44-5.91,12.14-4.23-.2-4.48-6.11-10.17-6.8,0-.21-.02-.43-.03-.64,2.77-.88,5.55-1.77,8.32-2.65-.31-5.57-4.06-3.19-8.21-5.78-4.05,5.97-4.36,6.69-3.89,9.44,.54-.95,1.06-1.87,1.42-2.51,.96,5.16,.59,11,5.66,13.61-3.12,2.2-4.63-2.13-6.93-4.4-.46,1.68-.78,2.84-1.27,4.6-1-1.54-1.72-2.64-2.48-3.8-.38,.56-.74,1.09-1.2,1.75-1.2-2.95-2.31-5.68-2.95-7.25-2.63-.31-4.42-.53-6.26-.74-.76-2.32-1.46-4.46-2-6.11-7.98-1.31-12.57-8.63-19.18-.14-.21-.3-.43-.6-.64-.89,.86-.98,1.72-1.97,2.33-2.66-1.95-1.82-2.17-4.18-2.76-6.77,.31-.13,1-.41,1.68-.7-.04-.14-.07-.28-.11-.42h-4.55c.86-1.21,1.37-1.93,1.89-2.67-.81-.39-1.53-.73-2.24-1.07,.1-.35,.21-.69,.31-1.04,1.98,1.01,3.96,2.02,6.06,3.09,.16-1.29,.26-2.15,.31-2.56-1.11-.45-2.52-.49-2.83-1.26-1.26-3.07-3.9-2.25-5.71-3.68-3.31-.67-.57,4.72-.46,5.94-3.45,1.74-10.26-3.2-12.53-5.85C58.27-11.07,15.16,.54,0,31.21c4.4,1.74,3.2-6.45,6.79-3.58-1.41,4.24-2.78,8.35-4.16,12.46,.25,.19,.5,.39,.76,.58,4.49-5.33,.25-5.98,5.3-12.43,.68,.42,1.32,.81,1.79,1.1,1.27-1.79,2.38-3.35,3.48-4.91,.23,.18,.47,.35,.7,.53,.18,2.71,.36,5.42,.54,8.12,.26,.06,.51,.12,.77,.18,.45-1.82,.9-3.65,1.55-6.28-1.03,.79-1.31,1-1.39,1.07-.14-1.49-.29-3.08-.46-4.91,.74-.57,1.59-1.23,3.02-2.33-.67,6.34-1.26,11.95-1.86,17.58,1.25-1.02,2.26-1.85,3.36-2.74-.13-.86-.29-1.99-.58-3.94,2.6,3.34,4.57,1.88,6.36-.13,1.17,3.98,2.3,7.84,3.43,11.7,.24-.03,.47-.06,.71-.09-.81-4.24,1.94-5.69,5.06-3.68-.04,.16-.08,.32-.11,.48h9.01c-.05,.24-.2,.89-.35,1.57,.87,.25,1.56,.45,2.36,.69-.8,1.1-1.43,1.98-2.07,2.86,1.21,.76,2.58,1.29,3.46,2.48-.98,2.4-1.95,4.79-3.09,7.58,2.67,3.06,3.05,3.18,6.14-.45-.21,3.03-.38,5.47-.54,7.87,2.7-1.52,6.22,2.8,4.88,5.23-2.09,.52-1.77,3.18-2.84,4.55,.88,1.18,1.66,2.22,2.54,3.42,2.3-4.62,4.48-9.03,6.44-12.97,4.47,3.37,2.37,11.71,6.9,15.78-1.39,2.06-3.86,3.31-2.63,6.74,1.33-.35,2.57-.67,3.96-1.04v4.49c.96-.63,1.74-1.13,2.29-1.49-.39-.84-.78-1.66-1.17-2.48,4.87-1.25,5.49,4.59,15.03,1.35v9.16c1.04-2.73,1.81-4.78,2.59-6.83,.32,.06,.63,.11,.95,.17,1.04,5.36-4.87,7.78-7.3,11.87,4.07-1.6,6.21-7.24,11.24-6.05-1.12-4.39,1.55-4.25,3.54-6.4,2.78-2.05,8.42-15.6,11.05-8.07,3.27-1.04,6.54-2.07,9.65-3.06,.31-.9,.61-2.63,.94-2.64,2.06-.05,4.67-.63,6.07,.7,3,2.84,4.37-.13,6.04-1.47,1.05,.84,1.99,1.6,2.94,2.35,.12-.25,.24-.51,.36-.76-2.21-1.52-2.38-7.49,1.29-5.99,2.55,1.55,3.96,1.11,5.69-1.33,1.8-1.98,4.24-3.11,5.72-5.47,.28,.58,.5,1.04,.72,1.5l.82-.08c.28-3.5,.97-6.7-2.98-8.12-.13,.26-.26,.52-.39,.77-.18-1.9-.35-3.79-.53-5.7,1.28-.49,2.6-1,4.41-1.69,.69,1.59,1.55,3.58,2.47,5.72h1.84c.11,1.86,2.16,3.26,.3,5.58-1.09,1.36-1.52,3.56-2.28,5.47,1.64,1.7,3.5,3.68,5.07,.48,8.04,6.94,7.03-8.28,11.22-2.15,5.08-1.3,2.56-7.04,3.53-10.07,2.69,.25,5.1,.46,7.5,.68V18.18c-.82,1.26-2.05,2.1-3.51,2.3ZM23.96,18.07c-.03,.74,0,1.49,0,2.04-1.52,1.3-2.98,2.54-4.62,3.94-1.58-4.92,2.42-4.6,4.09-8.76,.23,.2,.46,.4,.69,.6-.05,.73-.13,1.46-.16,2.19Zm23.62,29.4c.55-1.88-.23-2.48-1.72-2.89,1.36-.31,2.73-.61,4.09-.92,.14,.3,.27,.6,.41,.89-.93,.97-1.86,1.94-2.79,2.92Zm37.23-11.09c-4.13-.9-7.85-4.07-11.95-1.17,.19-.76,.43-1.7,.7-2.78-.5-.32-1.09-.7-2.5-1.6,1.57-2.18,2.91-4.04,4.25-5.9-2.99,4.11-9-4.31-3.37-4.99,10.82,2.27,5.77-2.28,11.94-2.27,.12,1.85,.22,3.37,.32,4.88-1.89,.63-3.79,1.25-5.68,1.88,0,.33,.01,.66,.02,1,3.82,3.26,9.16,4.38,6.28,10.95Zm6.28-7.11c-2.5,1.84-5.23-.79-7.71-1.96,.29-1.56,.59-3.14,.89-4.71,2.37-.92,4.74-1.83,6.89-2.66,.37,3.1,1.53,6.73-.07,9.34Zm9.08,1.92c.82,2.09,1.62,4.14,2.53,6.47-3.05-1.22-3.3-1.94-2.53-6.47Z"/><path d="M22.39,51.71c-.34-2.95-.68-5.89-.96-8.34,2.07-1.38,3.68-2.46,5.29-3.54,.29,.16,.57,.32,.86,.48,.3,4.28-.19,6.79-4.36,8.35-.14-.25-.28-.5-.43-.75v3.9c-.14-.03-.27-.07-.41-.1Z"/><path d="M124.95,30.78c-.22-.81-.65-2.4-1.09-3.99,.33-.26,.65-.53,.98-.79,1.99,1.86,3.99,3.72,5.98,5.57-.13,.23-.26,.46-.39,.7-1.61-.44-3.22-.88-5.48-1.49Z"/><path d="M35.82,64.45c-1.26,.67-3.48-.8-3.38,3.03-.82-2-3.1-2.49-1.91-4.93,.34-.7,1.65-1.49,1.98-1.21,1.11,.94,3.77-.61,3.31,3.12Z"/><path d="M43.85,66.34c-2.16,.29-4.32,.57-6.79,.9,.2-1.09,.41-2.25,.69-3.76,2.22,.83,4.16,1.56,6.1,2.29v.57Z"/><path d="M143.43,25.19c-2.14-.67-3.65-1.15-5.75-1.81,3.43-3.31,3.45-3.3,5.75,1.81Z"/><path d="M169.11,68.16c.75-1.59,1.34-2.85,1.9-4.06,.69,.65,1.29,1.2,2.47,2.3-1.56,.63-2.79,1.12-4.37,1.75Z"/></g></svg>